# xmcd
#
# Track frame offsets:
# 150
# 16990
# 32454
# 48077
# 66592
# 79724
# 97374
# 114363
# 132021
# 146856
# 163439
# 181596
# 197181
# 210817
#
# Disc length: 2937 seconds
#
#
# Revision: 0
# Processed by: cddbd v1.5.2PL0 Copyright (c) Steve Scherf et al.
# Submitted via: FreeRIP 2.944 
#
DISCID=bf0b770e
DTITLE=dIVERSOS - PANTANAL
DYEAR=1900
DGENRE=
TTITLE0=Comitiva Esperança-  Sergio Reis
TTITLE1=Chalana-  Irmãs Galvão
TTITLE2=Travessia do Araguaia -Joao Mulato e Douradinho
TTITLE3=O vai vem do carreiro- Cristiano Cesar
TTITLE4=Amargurado- Chico Rei e Parana
TTITLE5=Magoa de Boiadeiro- Gilberto e Glimar
TTITLE6=Tocando em frente- Sergio Reis
TTITLE7=Rio de Lagrimas - Mazinho Quevedo
TTITLE8=Beijinho doce- Nalva Aguiar
TTITLE9=Caminheiro- Liu e Léo
TTITLE10=Tropas e Boiadas- Pedro Bento e Zé da estrada
TTITLE11=Chico Mineiro- Murilo e Marcelo
TTITLE12=A enxada e a caneta- Zico e Zéca
TTITLE13=Cabocla Teresa- Jackson Antunes
EXTD=
EXTT0=
EXTT1=
EXTT2=
EXTT3=
EXTT4=
EXTT5=
EXTT6=
EXTT7=
EXTT8=
EXTT9=
EXTT10=
EXTT11=
EXTT12=
EXTT13=
PLAYORDER=
